<svg version="1.2" xmlns="http://www.w3.org/2000/svg" viewBox="0 0 1500 250" width="1500" height="250">
	<style>
		.s0 { fill: #6366f1 } 
	</style>
	<path id="SOCIALS" class="s0" aria-label="SOCIALS"  d="m-3.6 144.1h31.6q0.8 4.7 4.3 8.3 3.7 3.3 9.7 5.2 6.1 1.8 14.4 1.8 11.4 0 17.9-2.8 6.6-3.1 6.6-8.8 0-4.2-3.8-6.5-3.7-2.6-14.3-3.6l-20.9-2q-23.4-2.1-33.8-10.5-10.4-8.5-10.4-23 0-11.7 6.6-19.7 7-8.1 19.2-12.2 12.5-4.3 29-4.3 16.3 0 28.8 4.8 12.6 4.5 19.9 12.9 7.5 8.3 8.2 19.5h-31.6q-0.6-4.1-3.8-6.9-3.2-3-8.8-4.5-5.5-1.7-13.3-1.7-10.5 0-16.7 2.9-6 2.7-6 8 0 4 3.5 6.4 3.7 2.3 13.3 3.3l22.5 2.2q15.9 1.5 25.5 5.3 9.7 3.6 14 10 4.3 6.4 4.3 16.1 0 11.8-7 20.6-7.1 8.8-19.8 13.7-12.7 4.9-29.7 4.9-17.5 0-30.8-4.9-13.1-5-20.6-13.8-7.5-8.9-8-20.7zm193 39.4q-20.1 0-35.2-7.3-14.9-7.4-23.4-20.5-8.3-13.4-8.3-30.9 0-17.6 8.3-30.8 8.5-13.3 23.4-20.5 15.1-7.5 35.2-7.5 20 0 35 7.5 15.1 7.2 23.4 20.5 8.4 13.2 8.4 30.8 0 17.5-8.4 30.9-8.3 13.1-23.4 20.5-15 7.3-35 7.3zm0-27.8q10.9 0 18.8-3.6 7.9-3.9 12.1-10.7 4.5-7.1 4.5-16.6 0-9.6-4.5-16.5-4.2-7-12.1-10.7-7.9-3.8-18.8-3.8-10.9 0-19 3.8-7.8 3.7-12.2 10.7-4.2 6.9-4.2 16.5 0 9.5 4.2 16.6 4.4 6.8 12.2 10.7 8.1 3.6 19 3.6zm176.8-21.8h31.3q-1.7 14.8-10.3 26.1-8.5 11-22.5 17.3-13.8 6.2-31.8 6.2-19.6 0-34.3-7.3-14.7-7.4-23-20.5-8-13.4-8-30.9 0-17.6 8-30.8 8.3-13.3 23-20.5 14.7-7.5 34.3-7.5 18 0 31.8 6.3 14 6.2 22.5 17.4 8.6 11 10.3 25.9h-31.3q-1.5-7.1-6-12.1-4.2-5.1-11.2-7.8-6.9-2.8-16.1-2.8-10.5 0-18.3 4-7.4 3.7-11.5 10.9-4.1 7.1-4.1 17 0 9.8 4.1 17 4.1 7 11.5 11 7.8 3.8 18.3 3.8 9.2 0 16.1-2.6 7-2.6 11.2-7.7 4.5-5.1 6-12.4zm46.2 47.1v-112.5h31.2v112.5zm151.4-21.7h-77.4v-25h77.4zm-58.5-90.8h40.9l51.2 112.5h-33.2l-43-99.2h9l-42.9 99.2h-33.2zm103.1 0h31.1v98.7l-14-13.9h84.1v27.7h-101.2zm106 75.6h31.6q0.7 4.7 4.2 8.3 3.7 3.3 9.7 5.2 6.2 1.8 14.4 1.8 11.5 0 17.9-2.8 6.7-3.1 6.7-8.8 0-4.2-3.9-6.5-3.6-2.6-14.3-3.6l-20.9-2q-23.3-2.1-33.8-10.5-10.4-8.5-10.4-23 0-11.7 6.7-19.7 6.9-8.1 19.2-12.2 12.4-4.3 29-4.3 16.2 0 28.7 4.8 12.6 4.5 20 12.9 7.4 8.3 8.1 19.5h-31.6q-0.6-4.1-3.8-6.9-3.1-3-8.7-4.5-5.6-1.7-13.4-1.7-10.4 0-16.6 2.9-6.1 2.7-6.1 8 0 4 3.5 6.4 3.7 2.3 13.3 3.3l22.5 2.2q15.9 1.5 25.6 5.3 9.6 3.6 13.9 10 4.4 6.4 4.4 16.1 0 11.8-7.1 20.7-7 8.7-19.8 13.6-12.7 4.9-29.7 4.9-17.4 0-30.7-4.9-13.2-5-20.7-13.8-7.5-8.9-7.9-20.7z"/>
</svg>
