<svg version="1.2" xmlns="http://www.w3.org/2000/svg" viewBox="0 0 850 150" width="850" height="150">
	<style>
		.s0 { fill: #ffffff } 
	</style>
	<path id="MY SOCIALS" class="s0" aria-label="MY SOCIALS"  d="m98.6 22h32v75h-19.7v-67.6l4.4 0.5-29 67.1h-21l-29.1-66.9 4.5-0.5v67.4h-19.7v-75h32l26.9 64.4h-8zm95.9 75h-20.7v-36.5h20.7zm-17.1-25.5l-38.8-49.5h23l27.1 34.6h-9.2l27.1-34.6h22.9l-38.7 49.2zm77.2 1h21.1q0.4 3.1 2.8 5.4 2.4 2.3 6.5 3.5 4.1 1.3 9.5 1.3 7.7 0 12-2 4.4-2 4.4-5.8 0-2.8-2.5-4.4-2.5-1.7-9.6-2.4l-13.9-1.3q-15.6-1.4-22.5-7-7-5.6-7-15.3 0-7.8 4.5-13.2 4.6-5.3 12.8-8.1 8.2-2.8 19.3-2.8 10.8 0 19.2 3.1 8.3 3.1 13.3 8.6 4.9 5.6 5.4 13h-21.1q-0.4-2.6-2.5-4.6-2.1-1.9-5.8-3-3.8-1.1-8.9-1.1-7 0-11.1 1.9-4.1 1.8-4.1 5.4 0 2.6 2.4 4.2 2.4 1.6 8.8 2.3l15 1.4q10.6 1 17.1 3.5 6.4 2.5 9.3 6.7 2.9 4.3 2.9 10.8 0 7.8-4.7 13.7-4.7 5.9-13.2 9.1-8.5 3.3-19.8 3.3-11.7 0-20.5-3.3-8.8-3.3-13.8-9.2-5-5.9-5.3-13.7zm129.6 26.2q-13.3 0-23.4-4.9-10-4.9-15.6-13.7-5.6-8.8-5.6-20.6 0-11.7 5.6-20.5 5.6-8.8 15.6-13.7 10.1-4.9 23.4-4.9 13.3 0 23.4 4.9 10 4.9 15.6 13.7 5.6 8.8 5.6 20.5 0 11.8-5.6 20.6-5.6 8.8-15.6 13.7-10.1 4.9-23.4 4.9zm0-18.5q7.3 0 12.6-2.5 5.3-2.5 8.1-7.1 2.9-4.7 2.9-11.1 0-6.3-2.9-11-2.8-4.6-8.1-7.1-5.3-2.5-12.6-2.5-7.3 0-12.6 2.5-5.3 2.5-8.1 7.1-2.9 4.7-2.9 11 0 6.4 2.9 11.1 2.8 4.6 8.1 7.1 5.3 2.5 12.6 2.5zm117.2-14.5h20.9q-1.1 9.8-6.8 17.3-5.7 7.4-15 11.5-9.3 4.2-21.2 4.2-13.1 0-22.9-4.9-9.8-4.9-15.3-13.7-5.4-8.8-5.4-20.6 0-11.7 5.4-20.5 5.5-8.8 15.3-13.7 9.8-4.9 22.9-4.9 11.9 0 21.2 4.1 9.3 4.2 15 11.6 5.7 7.4 6.8 17.3h-20.9q-1-4.7-3.9-8.1-2.9-3.4-7.5-5.2-4.6-1.8-10.8-1.8-7 0-12.1 2.6-5 2.5-7.7 7.3-2.8 4.8-2.8 11.3 0 6.6 2.8 11.4 2.7 4.7 7.7 7.3 5.1 2.6 12.1 2.6 6.2 0 10.8-1.8 4.6-1.7 7.5-5.1 2.9-3.4 3.9-8.2zm30.5 31.3v-75h20.8v75zm101.3-14.4h-51.6v-16.7h51.6zm-39-60.5h27.2l34.1 75h-22.1l-28.6-66.2h6l-28.6 66.2h-22.2zm68.7 0h20.8v65.8l-9.3-9.3h56.1v18.5h-67.6zm70.7 50.4h21.1q0.5 3.1 2.8 5.5 2.5 2.2 6.5 3.5 4.1 1.2 9.6 1.2 7.6 0 11.9-1.9 4.4-2.1 4.4-5.8 0-2.9-2.5-4.4-2.5-1.7-9.6-2.4l-13.9-1.3q-15.6-1.4-22.5-7-7-5.7-7-15.3 0-7.8 4.5-13.2 4.6-5.4 12.8-8.1 8.3-2.9 19.3-2.9 10.8 0 19.2 3.2 8.4 3 13.3 8.6 5 5.5 5.4 13h-21.1q-0.3-2.7-2.5-4.6-2.1-2-5.8-3-3.7-1.1-8.9-1.1-7 0-11.1 1.9-4.1 1.8-4.1 5.4 0 2.6 2.4 4.2 2.4 1.5 8.9 2.2l14.9 1.5q10.7 1 17.1 3.5 6.4 2.4 9.3 6.7 2.9 4.3 2.9 10.7 0 7.9-4.7 13.8-4.7 5.8-13.2 9.1-8.5 3.2-19.8 3.2-11.7 0-20.5-3.2-8.8-3.3-13.8-9.2-5-6-5.3-13.8z"/>
</svg>
